<svg id="Layer_1" data-name="Layer 1" xmlns="http://www.w3.org/2000/svg" viewBox="0 0 1440 960"><defs><style>.cls-1{fill:none;stroke:#5161f2;stroke-miterlimit:10;stroke-width:19px;}.cls-2{fill:#0d1a63;}.cls-3{fill:#333;}</style></defs><title>Artboard 1</title><rect class="cls-1" x="98.5" y="107.5" width="1247" height="732"/><path class="cls-2" d="M229.94,338.37c9.42,0,16.9,1.71,22.24,5.55s8.86,10,8.86,18.65c0,19-16.21,26.68-28.85,26.71a24.58,24.58,0,0,1-3.58-.26l-8.71-2.27v19.82c0,10.92.91,11.23,12.76,12.48v3.85H195.78v-3.85c10.93-1.17,11.59-1.88,11.59-12.7V355.07c0-11.45-1.41-11.88-11.59-12.85v-3.85ZM219.9,382a22.36,22.36,0,0,0,9,1.62c8.22,0,18.83-4.26,18.83-20.78,0-14.36-9.1-19.91-19.58-19.91-3.59,0-6.11.65-6.89,1.51-1,.89-1.38,2.4-1.38,5.63Z"/><path class="cls-2" d="M300.4,422.9H269.7v-3.78c8-.78,8.71-1.43,8.71-9.77v-27.3c0-8.21-.52-8.65-7.8-9.63V369a80.56,80.56,0,0,0,19.25-5.26V378c4.78-7.16,10.1-13.89,16.4-13.89,4.81,0,7.7,3,7.7,6.53a9.43,9.43,0,0,1-4.82,7.85,2.73,2.73,0,0,1-3.49-.33c-2-1.93-3.59-3.37-5.9-3.37-2.59,0-7.13,3.61-9.89,9.94v24.5c0,8.44.69,9,10.54,9.87Z"/><path class="cls-2" d="M347.82,364.13c16.63,0,28.63,12.62,28.63,29.18,0,21.05-15.51,31.15-28.72,31.15-18.25,0-29.23-14.5-29.23-29.19C318.5,374.31,335,364.13,347.82,364.13Zm-1.56,4.57c-7.51,0-14.36,7.34-14.36,22.59,0,16.45,6.93,28.48,17.15,28.48,7.5,0,14-5.41,14-23.43C363.06,380.6,357.1,368.7,346.26,368.7Z"/><path class="cls-2" d="M435.63,411c-5.77,7.73-14.48,13.43-22.31,13.43-16.77,0-26.67-13.42-26.67-27.42,0-10.16,4.52-18.84,13.16-25.38,7.2-5.52,15.07-7.53,20.28-7.53,5.69,0,10,1.75,12,3.44,1.82,1.41,2.15,2.44,2.15,4,0,3.22-3.34,6.11-4.89,6.11-.7,0-1.29-.28-2.54-1.32-4.31-3.83-8.74-5.7-13.21-5.7-7.95,0-15.23,6.86-15.23,20.48C398.24,409,410.64,415,417.83,415c5.44,0,9.77-1.43,15.52-6.85Z"/><path class="cls-2" d="M490.38,411.54c-8.26,10.64-17.59,12.92-22,12.92-16.15,0-25.82-13-25.82-28a33.5,33.5,0,0,1,8.69-22.87c5.53-6.07,12.71-9.43,19.54-9.43,11.57,0,20.2,9.9,20.18,20.35-.11,2.53-.45,3.89-2.44,4.38-2.57.55-19.53,1.67-34.49,2.19-.22,16.77,9.9,23.9,19.16,23.9,5.29,0,10.25-2.14,15-6.49Zm-22.61-42.39c-5.84,0-11.43,5.68-13.07,16.17,6.94,0,13.8-.05,21.07-.39,2.25,0,3-.61,3-2.6C478.93,375.5,474.66,369.15,467.77,369.15Z"/><path class="cls-2" d="M533.13,381.43c-2.53-7.83-6.1-12.84-13.7-12.84-4.39,0-7.85,3.13-7.85,8.17,0,5.41,3.67,8,10.86,11.29,11.07,5.22,16.94,9.21,16.94,18.1,0,12.15-11.18,18.31-21.64,18.31a35.53,35.53,0,0,1-15.66-3.68c-.63-3.64-1.8-11.12-2.3-15.45l3.87-.68c2.41,8.3,7.1,15.23,16.09,15.23,4.94,0,8.8-3.31,8.8-8.47,0-5.53-3.23-8.52-10.34-12-9-4.38-16.58-8.61-16.58-18.23s8.13-17.06,20.63-17.06c5.61,0,10.1,1.3,12.77,1.74.39,3.19,1.35,11.41,2,14.6Z"/><path class="cls-2" d="M582.16,381.43c-2.53-7.83-6.1-12.84-13.7-12.84-4.39,0-7.85,3.13-7.85,8.17,0,5.41,3.67,8,10.86,11.29,11.07,5.22,16.94,9.21,16.94,18.1,0,12.15-11.18,18.31-21.64,18.31a35.53,35.53,0,0,1-15.66-3.68c-.63-3.64-1.8-11.12-2.3-15.45l3.87-.68c2.41,8.3,7.1,15.23,16.09,15.23,4.94,0,8.8-3.31,8.8-8.47,0-5.53-3.23-8.52-10.34-12-9-4.38-16.58-8.61-16.58-18.23s8.13-17.06,20.64-17.06c5.6,0,10.09,1.3,12.76,1.74.39,3.19,1.35,11.41,2,14.6Z"/><path class="cls-2" d="M596.63,422.9v-3.78c8-.8,8.87-1.43,8.87-10.34V382.24c0-8.18-.44-8.7-7.94-9.9V369a94.18,94.18,0,0,0,19.38-5.1v44.88c0,8.84.84,9.54,9.13,10.34v3.78ZM610.46,352a7.54,7.54,0,0,1-7.34-7.32,7.43,7.43,0,0,1,7.47-7.52,7.2,7.2,0,0,1,7.12,7.52A7.35,7.35,0,0,1,610.46,352Z"/><path class="cls-2" d="M669.87,422.9v-3.78c7.17-.78,7.88-1.62,7.88-10.49V387c0-9.12-3.49-14.65-11.35-14.65-5,0-9.65,2.79-13.59,6.25v30.62c0,8.78.73,9.09,8,9.87v3.78H632.33v-3.78c8.26-1,9-1.41,9-10V382.32c0-8.34-.94-8.73-7.73-9.9V368.9a83.38,83.38,0,0,0,19.22-5.16c0,2.78-.05,7-.05,10.11,2.6-1.82,5.44-3.77,8.75-5.91,3.69-2.34,6.91-3.81,10.68-3.81,10.43,0,17,7.68,17,20.41v24.68c0,8.71.78,9.1,8.09,9.9v3.78Z"/><path class="cls-2" d="M722.29,403.68c-2.79,2.28-3.94,4.62-3.94,6.13,0,2.29,2.26,4.92,7.94,4.92,4.7,0,10.3-.11,14.59-.11,8.26,0,19.09,2.83,19.09,15.68,0,13.73-16.35,26.29-33.65,26.29-15.12,0-23-8.54-23.22-16.11a9.77,9.77,0,0,1,3.37-7.37,137.06,137.06,0,0,1,10.5-8.85,17.28,17.28,0,0,1-9.75-7.07,11.49,11.49,0,0,1-1.65-5.87,29.28,29.28,0,0,0,12.33-9.07Zm6.24,1.3C716,405,706,397.48,706,385.34c0-14.68,13.31-21.53,23.74-21.53a27.51,27.51,0,0,1,12.88,3.28,88.82,88.82,0,0,0,17.52-1.93l.76,1.15c-.78,2.13-2.79,5.88-4.81,7.1-2,0-6.17-.52-8-.65a19.25,19.25,0,0,1,3.66,11.62C751.75,398.35,740,405,728.53,405Zm2.74,19.67c-6.42,0-9.35.78-11.62,2.68-3.39,2.79-5.78,6.45-5.78,10,0,7.1,7.25,12.44,17.47,12.44,11.94,0,18.82-6.07,18.82-14.16,0-4.49-2.27-7.94-6-9.4C740.88,424.91,736.61,424.65,731.27,424.65Zm-2.71-56.53c-5.53,0-10.52,5.23-10.52,15.37s4.8,17.19,11.77,17.19c5.61-.21,10.28-5.12,10.28-15.44C740.09,375.44,735.65,368.12,728.56,368.12Z"/><path class="cls-3" d="M244.23,508.16a112.59,112.59,0,0,1-4.6,13,72.69,72.69,0,0,1-15.17,2.09c-21.35,0-30.83-13.89-30.83-27.48,0-17,13-28.61,32.32-28.61,7.16,0,13.32,1.65,15.61,2,.39,3.82,1,9.53,1.57,13.34l-3,.57c-1.71-6.12-4-9.29-8.33-11a21.55,21.55,0,0,0-7.71-1.3c-12.55,0-19,10-19,23.23,0,15.4,7.94,25.64,20,25.64,7.46,0,11.91-3.72,16.28-12.52Z"/><path class="cls-3" d="M270.06,484.5c11.18,0,18.65,8.44,18.65,18.61,0,13.32-9.7,19.9-18.86,19.9a18.59,18.59,0,0,1-19.15-18.85C250.7,491.23,261.14,484.5,270.06,484.5Zm-1,3.13c-4.07,0-7.92,4.12-7.92,14.08,0,10.33,3.82,18.09,9.58,18.09,3.83,0,7.53-2.7,7.53-14.5C278.26,494.46,274.94,487.63,269.07,487.63Z"/><path class="cls-3" d="M339.32,522v-2.64c3.85-.49,4.43-.82,4.43-6.12V499.14c0-6.51-2.79-8.61-6.24-8.61-2.17,0-4.42.93-7.18,3.17.08,1,.19,2.14.19,3.49v16.46c0,4.82.42,5.24,4.48,5.73V522H316.73v-2.64c4.16-.49,4.63-.77,4.63-5.79V498.85c0-6-2.16-8.38-5.91-8.38-2.5,0-4.92,1.27-7.32,3.12v20c0,4.91.53,5.3,4.16,5.79V522H293.78v-2.64c4.86-.55,5.2-.88,5.2-6V496c0-4.86-.17-5.46-4.31-6.12v-2.44a70.33,70.33,0,0,0,13.46-3.2v6.37c1.79-1.27,3.36-2.46,5.42-3.71,2.38-1.48,4.31-2.41,6.84-2.41,4.4,0,7.57,2.48,9.17,6.45,2.1-1.6,3.92-2.85,6-4.25a12.55,12.55,0,0,1,6.58-2.2c6.92,0,10.78,4.79,10.78,13.09v16c0,4.89.44,5.19,4.72,5.79V522Z"/><path class="cls-3" d="M407.63,522v-2.64c3.85-.49,4.43-.82,4.43-6.12V499.14c0-6.51-2.79-8.61-6.25-8.61-2.17,0-4.41.93-7.18,3.17.08,1,.2,2.14.2,3.49v16.46c0,4.82.42,5.24,4.48,5.73V522H385v-2.64c4.16-.49,4.63-.77,4.63-5.79V498.85c0-6-2.17-8.38-5.92-8.38-2.5,0-4.91,1.27-7.31,3.12v20c0,4.91.52,5.3,4.16,5.79V522H362.09v-2.64c4.86-.55,5.19-.88,5.19-6V496c0-4.86-.17-5.46-4.31-6.12v-2.44a70.25,70.25,0,0,0,13.47-3.2v6.37c1.79-1.27,3.36-2.46,5.41-3.71,2.39-1.48,4.31-2.41,6.85-2.41,4.39,0,7.57,2.48,9.16,6.45,2.1-1.6,3.93-2.85,6-4.25a12.58,12.58,0,0,1,6.58-2.2c6.93,0,10.78,4.79,10.78,13.09v16c0,4.89.45,5.19,4.72,5.79V522Z"/><path class="cls-3" d="M471,520.06a146.4,146.4,0,0,0-14.63,3v-5.88c-3.76,3.13-7.29,5.88-11.83,5.88-6.45,0-10.65-4.09-10.65-12V494.27c0-4-.55-4.47-2.72-5l-1.94-.47v-2.47c4-.16,10.13-.83,14.12-1.43-.19,3.18-.25,7.36-.25,12.33V509c0,6,3.1,7.94,6.28,7.94a9.3,9.3,0,0,0,7-3V494.33c0-4-.61-4.66-3.1-5.08l-2.54-.44v-2.47a145,145,0,0,0,14.91-1.43V512.1c0,4.23.55,5,3.36,5.25l2,.13Z"/><path class="cls-3" d="M498.7,522v-2.64c3.94-.49,4.27-.91,4.27-6.58V498.85c0-5.84-2.6-8.38-6.39-8.38-2.58,0-4.89,1.24-7.23,3.12v19.75c0,5.27.38,5.55,4.29,6V522h-18.7v-2.64c4.7-.68,5.2-.85,5.2-6.25V496c0-5.1-.63-5.35-4.56-6.09v-2.47a70.8,70.8,0,0,0,13.87-3.2c-.05,1.42-.1,4.22-.1,6.15,1.65-1.16,3.41-2.4,5.4-3.64,2.42-1.48,4.19-2.26,6.59-2.26,6.66,0,10.84,4.87,10.84,13.15v15.64c0,5.3.5,5.54,4.75,6.09V522Z"/><path class="cls-3" d="M521.36,522v-2.64c4.72-.55,5.25-.91,5.25-6.68V496.27c0-5.39-.36-5.72-4.61-6.33v-2.46a76.9,76.9,0,0,0,13.82-3.09V512.7c0,5.61.41,6.13,5.41,6.68V522Zm9.29-43.74a5.49,5.49,0,0,1-5.4-5.34,5.42,5.42,0,0,1,5.48-5.41,5.28,5.28,0,0,1,5.34,5.41A5.38,5.38,0,0,1,530.65,478.28Z"/><path class="cls-3" d="M561.86,522a8.82,8.82,0,0,1-3.39,1c-6,0-9.44-3.06-9.44-10.26V489.36H543.6l-.44-1,2.34-2.88H549V478.6c2.38-1.86,5.85-4.33,8.27-6.2l1.14.49c-.12,2.66-.25,7.19-.2,12.6h8.67c.74.83.44,3.13-.61,3.87h-8.06v20.55c0,6.53,2.64,7.45,4.42,7.45a10.83,10.83,0,0,0,4.34-1l.79,2.68Z"/><path class="cls-3" d="M610,488.1c-4.08.6-4.93,1.37-7,5.92s-4.34,10.4-9.45,22.89A246.85,246.85,0,0,0,585,540.13c-.54,1.79-1.51,2.31-2.8,2.31-3,0-6-2.22-6-4.82,0-1.24.52-1.92,2.09-3,3-1.9,5.13-3.62,6.44-6a46.63,46.63,0,0,0,2.53-5.61,4.48,4.48,0,0,0-.27-3.23c-3.92-11-8.92-21.93-10.75-26.27-1.6-3.84-2.51-4.84-6.68-5.41v-2.61h19.26v2.61c-3.63.57-4.15,1.24-3.19,4l7,18.44c2-4.95,5.08-13.09,6.66-17.92.88-2.82,0-3.83-4.38-4.49v-2.61H610Z"/><path class="cls-3" d="M656,468.33c11,0,18.57,2.26,23.79,7.19,4.16,3.91,7.29,9.69,7.29,17.89,0,9.55-4,17-10.32,21.81-6.17,4.66-14.08,6.8-23.75,6.8H631.49v-2.8c6.57-.55,7.16-1.24,7.16-8.06V479.22c0-7-.93-7.54-7.16-8.09v-2.8Zm-7.38,42.22c0,6,1.89,7.87,8,7.87,12.45,0,19.3-8.6,19.3-23.8,0-8.25-2.47-15.11-7.22-18.81-3.58-3.09-8.05-4.16-13.59-4.16-3.28,0-4.89.6-5.5,1.16s-1,1.88-1,4.57Z"/><path class="cls-3" d="M720.84,523a7,7,0,0,1-4.69-1.68,7.76,7.76,0,0,1-2.09-3.29c-3.2,2.13-7.25,5-9.16,5a10.6,10.6,0,0,1-10.83-10.48c0-4.26,2.07-6.48,6.5-8.15,4.94-1.79,11.35-3.83,13.22-5.43V496c0-4.84-2.06-7.58-5.88-7.58a4.31,4.31,0,0,0-3.5,1.73c-1,1.27-1.38,3-2.07,5.43a2.93,2.93,0,0,1-3.15,2.49c-1.94,0-4.44-1.87-4.44-4.07,0-1.37,1-2.41,2.83-3.68a39,39,0,0,1,12.76-5.83,13.39,13.39,0,0,1,8,2.34c3.32,2.47,4.42,5.71,4.42,10v14.87c0,3.91,1.35,5,2.73,5a6.36,6.36,0,0,0,2.71-.75l.88,2.63Zm-7.05-20.84c-1.61.85-4,2-5.7,2.87-2.76,1.35-4.39,2.87-4.39,5.77,0,4.53,3.25,6.3,5.35,6.3a6.87,6.87,0,0,0,4.74-1.9Z"/><path class="cls-3" d="M768.05,488.1c-4.08.6-4.94,1.37-7,5.92s-4.35,10.4-9.46,22.89A242.59,242.59,0,0,0,743,540.13c-.55,1.79-1.52,2.31-2.8,2.31-3,0-6-2.22-6-4.82,0-1.24.53-1.92,2.09-3,3-1.9,5.13-3.62,6.44-6a46.63,46.63,0,0,0,2.53-5.61,4.48,4.48,0,0,0-.27-3.23c-3.92-11-8.92-21.93-10.75-26.27-1.6-3.84-2.51-4.84-6.67-5.41v-2.61h19.26v2.61c-3.64.57-4.16,1.24-3.2,4l7,18.44c2-4.95,5.08-13.09,6.65-17.92.88-2.82,0-3.83-4.38-4.49v-2.61h15.12Z"/><path class="cls-2" d="M916.77,334.71q15.63,4.94.83,12.35v22.22h50.21l16.46-16.46,18.93,15.64c2.19,2.2,1.92,4.11-.82,5.76H917.6v21.4H953l9.88-12.35,16.46,16.47q7.41,9.87-4.94,10.7v53.5l-4.11,2.47q-12.36,4.93-14.82,0V453.24H920.07q31.26,36.22,88.89,52.68-12.35,5.74-14.81,9.05-3.3,2.47-9.06,10.7-39.51-20.58-67.49-64.2v65L913.48,529q-12.35,4.93-14.81,0V475.46Q865.73,510,817.18,529c-2.76,0-3-.83-.83-2.47a235.53,235.53,0,0,0,75.73-73.26H859.16v14L855,469.7q-12.35,4.94-14.82,0V384.92l21.41,10.7h37v-21.4H817.18v-4.94h81.49V333.06ZM859.16,422h39.51v-21.4H859.16Zm0,26.34h39.51V426.9H859.16ZM917.6,422h37.86v-21.4H917.6Zm0,26.34h37.86V426.9H917.6Z"/><path class="cls-2" d="M1093.74,468.06q9.06,7.4-7.4,8.23a169.81,169.81,0,0,1-59.27,41.15q-3.3,0,0-2.47,28-20.57,49.39-59.26Zm37-129.23q13.17,3.3-1.64,10.7v18.93h52.68L1198.28,352l18.93,15.64q3.29,3.28-.82,5.76H1027.07v-4.94h83.14V335.53Zm56.8,63.38q7.41,9.87-4.94,10.7v37l-4.11,2.47q-12.36,4.93-14.82,0v-9.88h-34.57v76.55a17.46,17.46,0,0,1-7.41,6.58,46.2,46.2,0,0,1-9,4.12c-4.94,1.65-7.41,1.09-7.41-1.65l-.83-7.4c0-1.11-.82-1.93-2.47-2.47l-23.87-9.88c-1.64-1.65-1.37-2.47.83-2.47q14.82.82,28.81.82a2.18,2.18,0,0,0,2.47-2.47V442.54h-33.75v8.23l-4.12,2.47q-12.35,4.93-14.81,0V387.39l20.57,10.7h83.14l9.88-12.35ZM1076.46,437.6h87.25V403h-87.25Zm125.94,65.85q0,10.69-10.71,10.7-5.76,0-10.7-9a128.05,128.05,0,0,0-42-42c-2.2-2.19-1.93-3.3.82-3.3Q1202.38,479.58,1202.4,503.45Z"/><path class="cls-3" d="M663.07,685.12c-.86,2.9-1.9,6.47-2.47,8.77H638.11v-1.48c3.06-3,6.41-6.37,9.27-9.62,4-4.59,6.5-8.71,6.5-13.33,0-4.29-2.18-7-6.16-7-3.59,0-6.05,2.63-7.79,5.15l-1.57-1.34,3.51-5.14a11,11,0,0,1,8.4-3.49c5.6,0,10.21,3.81,10.21,10.08,0,4.59-1.73,7.9-7.4,13.32-2.31,2.23-5.64,5.37-7.83,7.34h10c3.37,0,4.12-.25,6.17-3.84Z"/><path class="cls-3" d="M678.91,657.69c9.29,0,12.49,10,12.49,18.41s-3.2,18.47-12.49,18.47-12.58-9.92-12.58-18.41S669.69,657.69,678.91,657.69Zm-.07,2.29c-4.38,0-5.43,8.27-5.43,16s1.34,16.31,5.54,16.31S684.3,684,684.3,676,683.06,660,678.84,660Z"/><path class="cls-3" d="M698,693.89V692c6-.33,6.41-.83,6.41-5V665.88c0-2.9-.81-3.09-3.21-3.36l-2.09-.28v-1.72A58,58,0,0,0,711,657.69V687c0,4.26.34,4.67,6.36,5v1.93Z"/><path class="cls-3" d="M740.54,678l-3.19,1.65a7.22,7.22,0,0,1-3.35.93,10.37,10.37,0,0,1-10.78-10.74,12.31,12.31,0,0,1,12.65-12.13c7.73,0,12.2,6.64,12.2,14.4,0,10.38-6.8,17.85-14.79,21a31.05,31.05,0,0,1-7.82,1.67l-.42-2C733.72,690.75,738.88,685.63,740.54,678Zm-5.69-18c-3.55,0-4.94,3.26-4.94,7.8,0,5,2.72,9.11,7.13,9.11a7.51,7.51,0,0,0,3.84-1.06,28.76,28.76,0,0,0,.26-4C741.14,666.45,739.64,659.91,734.85,659.94Z"/><path class="cls-3" d="M756.6,694.61a4.37,4.37,0,0,1,0-8.74,4.37,4.37,0,0,1,0,8.74Z"/><path class="cls-3" d="M790.17,685.12c-.85,2.9-1.89,6.47-2.46,8.77H765.22v-1.48c3.06-3,6.4-6.37,9.27-9.62,4-4.59,6.49-8.71,6.49-13.33,0-4.29-2.17-7-6.15-7-3.6,0-6.05,2.63-7.79,5.15l-1.57-1.34,3.51-5.14a11,11,0,0,1,8.4-3.49c5.6,0,10.21,3.81,10.21,10.08,0,4.59-1.73,7.9-7.4,13.32-2.31,2.23-5.64,5.37-7.83,7.34h10c3.38,0,4.12-.25,6.17-3.84Z"/><path class="cls-3" d="M798.38,694.61a4.37,4.37,0,0,1,0-8.74,4.37,4.37,0,0,1,0,8.74Z"/><path class="cls-3" d="M832,685.12c-.85,2.9-1.89,6.47-2.46,8.77H807v-1.48c3.06-3,6.4-6.37,9.27-9.62,4-4.59,6.49-8.71,6.49-13.33,0-4.29-2.17-7-6.15-7-3.6,0-6.05,2.63-7.79,5.15l-1.57-1.34,3.51-5.14a11,11,0,0,1,8.4-3.49c5.6,0,10.21,3.81,10.21,10.08,0,4.59-1.73,7.9-7.4,13.32-2.31,2.23-5.64,5.37-7.83,7.34h10c3.38,0,4.12-.25,6.17-3.84Z"/></svg>