<svg xmlns="http://www.w3.org/2000/svg" viewBox="0 0 286.04 306.98"><defs><style>.cls-1,.cls-11,.cls-2{font-size:14px;font-family:Menlo-Regular, Menlo;}.cls-1,.cls-11,.cls-14,.cls-2{fill:#fff;}.cls-1,.cls-6{letter-spacing:-0.07em;}.cls-12,.cls-2{letter-spacing:0em;}.cls-11,.cls-3{letter-spacing:-0.02em;}.cls-4{letter-spacing:-0.01em;}.cls-5{letter-spacing:-0.05em;}.cls-7{letter-spacing:0.01em;}.cls-8{letter-spacing:0.05em;}.cls-9{letter-spacing:0em;}.cls-10{letter-spacing:-0.1em;}.cls-13{letter-spacing:-0.05em;}</style></defs><title>left</title><g id="レイヤー_2" data-name="レイヤー 2"><g id="レイヤー_3" data-name="レイヤー 3"><g id="left"><rect x="1.29" y="290.91" width="284" height="13.51"/><text class="cls-1" transform="translate(0 301.52) scale(1 1.04)">P</text><text class="cls-2" transform="translate(7.39 301.32)">r<tspan class="cls-3" x="8.44" y="0">oc</tspan><tspan class="cls-4" x="24.63" y="0">e</tspan><tspan class="cls-5" x="32.93" y="0">s</tspan><tspan class="cls-6" x="40.67" y="0">s</tspan><tspan x="48.07" y="0">ing C</tspan><tspan class="cls-7" x="90.28" y="0">o</tspan><tspan class="cls-8" x="98.86" y="0">m</tspan><tspan class="cls-9" x="108" y="0">mu</tspan><tspan class="cls-6" x="124.89" y="0">n</tspan><tspan class="cls-10" x="132.28" y="0">i</tspan><tspan x="139.33" y="0">ty </tspan></text><text class="cls-2" transform="translate(172.05 301.52) scale(1 1.04)">D</text><text class="cls-11" transform="translate(180.49 301.32)">a<tspan class="cls-12" x="8.09" y="0">y </tspan></text><text class="cls-1" transform="translate(205.47 301.52) scale(1 1.04)">T</text><text class="cls-11" transform="translate(212.86 301.32)">o<tspan class="cls-12" x="8.09" y="0">k</tspan><tspan x="16.54" y="0">y</tspan><tspan class="cls-9" x="24.63" y="0">o </tspan><tspan class="cls-13" x="41.51" y="0">202</tspan><tspan class="cls-9" x="64.74" y="0">0</tspan></text><rect class="cls-14" x="1.29" y="4.23" width="284" height="70"/><rect class="cls-14" x="1.29" y="103.23" width="284" height="70"/><rect class="cls-14" x="1.29" y="202.23" width="284" height="70"/><path d="M53.87,53c0,8.28,0,15.73,0,23.19,0,1.87-.2,3.24-2.63,3.06-2.26-.16-4.54,0-6.81,0-1.85,0-2.94-.52-2.28-2.88a24.57,24.57,0,0,0,.69-6.41q.07-23.72,0-47.43A70.66,70.66,0,0,0,42,14a2.93,2.93,0,0,1,3.09-3c7,.17,14.06.46,21.09.48,5.72,0,11.43-.09,16.64,2.69,5.79,3.09,8.77,7.89,9.5,14.53.57,5.15.11,10-2.31,14.42-3.37,6.2-9,9.33-15.9,9.73S60.53,53,53.87,53Zm-.38-9.45c6.25,0,12.34.17,18.41-.1a12.8,12.8,0,0,0,5.89-2.14c3.6-2.28,3.89-6,4-9.93.09-4.65-3-9-6.89-9.24C67.8,21.72,60.71,22,53.49,22Z"/><path d="M197.22,4.23c8.86.53,17.56.56,26.12,1.71,5.73.77,10.72,4,14.59,8.55a3.6,3.6,0,0,1,.51,2.17q0,22.67,0,45.33a4.84,4.84,0,0,1-1.2,2.91,25.84,25.84,0,0,1-18.72,9c-7,.25-14.05.06-21.27.06Zm1.91,10.82v3.43q0,21.74,0,43.48c0,1.69.81,2,2.28,2,5.15-.05,10.33.3,15.45-.1a17.32,17.32,0,0,0,15.3-10.83c3.73-8.48,3.67-17.31.89-25.94a16.08,16.08,0,0,0-11.37-10.93C214.29,14.07,206.83,15.9,199.13,15.05Z"/><path d="M142.94.17V10.22c-5.87-.73-11.3.07-15.9,3.95a22,22,0,0,0-7.63,14.55c-.94,7.27-1,14.41,2.1,21.27s8,11.07,15.7,11.35c1.84.06,3.68,0,5.67,0V71.64c-9.68,1.06-18.47-.85-25.4-7.91a30.72,30.72,0,0,1-9-18.77c-.41-4-1.29-8.1-1-12.07C108.55,20.38,113,9.57,124.58,3,128.65.68,135.67-.46,142.94.17Z"/><path d="M189.08,11.29V79.17c-2.29,0-4.52.08-6.75,0-1.6-.08-2.23-1.13-2-2.7a31.1,31.1,0,0,0,.46-4.07q0-27.63,0-55.25a15,15,0,0,0-.34-3.06c-.48-2.25.75-3.78,3-3.55C185.25,10.69,187,11,189.08,11.29Z"/><path d="M150,69.88c7.89-1.77,11.78-7.18,13.18-15.2,3,.56,5.76,1,8.49,1.6,1.9.41,2.14,2,1.72,3.47-2.84,9.93-9.49,17.53-20,19.43-1.07.2-2.14.43-3.39.68Z"/><path d="M173,30.47c-2.58.84-5.18,1.77-7.83,2.53A2.44,2.44,0,0,1,162,31.17a16.25,16.25,0,0,0-7.14-9.1A41.2,41.2,0,0,0,150,20V10.19C162.93,11.35,170.48,20.36,173,30.47Z"/><path d="M247.12,17c8.27,11.12,7.84,32.62,0,43.59Z"/><path d="M95.31,144.7c0,5.94,0,11.88,0,17.82a3.52,3.52,0,0,1-1.74,3.35,22.84,22.84,0,0,1-14.44,4.6c-10.72-.44-19.35-3.7-23.32-16.2-3.38-10.62-2.08-21,6.33-29.4,3.19-3.18,7.27-4.79,11.63-5.62a26,26,0,0,1,20.06,4.27,3.65,3.65,0,0,1,1.38,2.57C95.37,132.29,95.31,138.49,95.31,144.7Zm-30.75-.33c.42,2.18.74,4.38,1.28,6.52,2.22,8.8,9.31,10.89,16.68,9.47A12.28,12.28,0,0,0,89.09,156c4.69-5.9,4.49-12.61,2.07-19.43-3.16-8.89-13-10.16-19.53-6.38C66.33,133.24,64.88,138.52,64.56,144.37Z"/><path d="M247.44,140.33c.57,2.2.8,4.55,1.75,6.56,3.46,7.27,8.35,7.93,15.13,7.4,4.83-.37,9.2-5,10.28-10.48,1-5.25,1-10.48-1.62-15.31-2.78-5.14-7-7-12.43-6.55-6.36.53-10.3,3.2-12.12,9.62a15,15,0,0,1-1.31,3.81v-19c4.4-2.39,9.28-4.16,14.61-4,11.9.48,21.69,7.56,23.48,20.56,1.29,9.41-.28,17.86-7,24.75a20.64,20.64,0,0,1-14.59,6.07c-4.87.16-9.63-.14-14.11-2.33-1.85-.9-2.84-2-2.73-4.3.23-4.79.06-9.6.08-14.41,0-.82.07-1.64.11-2.46Z"/><path d="M134,131.71l8.87-9.59v25.47c-1.93-2.34-3.63-4.41-5.19-6.29a3.18,3.18,0,0,0-.64,0c-3.75,2.38-4.4,5.9-4,10,.29,3.29,0,6.63.09,10,.07,1.86-.8,2.47-2.44,2.47-2.19,0-4.37,0-6.55,0-1.91,0-2.7-1-2.57-2.77.14-2.06.49-4.12.49-6.18q.06-26.21,0-52.4c0-1.8-.34-3.59-.49-5.39-.18-2.06.68-3.1,2.85-3,2,.07,4,0,6,0s2.72.7,2.7,2.77c-.09,10.47,0,21,0,31.43v2.83Z"/><path d="M197,184.24c0-5.3,0-10.36,0-15.42a4.32,4.32,0,0,1,.54-1.94,6.4,6.4,0,0,0,0-6.61,5,5,0,0,1-.57-2.2c0-7.68,0-15.36.39-23.19l6.8,15.58c.68-1.4,1.08-2.06,1.34-2.78,3.62-9.65,7.28-19.28,10.75-29,.58-1.62,1.19-2.21,2.85-2.12,2.35.12,4.71,0,7.07,0,2.08,0,2.58,1,1.86,2.8q-2.85,7.07-5.74,14.12-4.8,11.72-9.59,23.44c-2.8,6.82-5.59,13.64-8.45,20.43A13.07,13.07,0,0,1,197,184.24Z"/><path d="M1.06,105.63V94.89H28.51v69.42a19.94,19.94,0,0,1-4.69-.11A3.11,3.11,0,0,1,22,161.91c-.14-1.77.4-3.58.41-5.38,0-16.15,0-32.3.08-48.45,0-2.5-.78-3.15-3.15-3.06-4.45.18-8.9,0-13.35.08C4.39,105.12,2.8,105.43,1.06,105.63Z"/><path d="M149.85,141.31v-3.4c0-3.32-.85-6.95.25-9.86s4.05-4.93,6.36-7.17a5.07,5.07,0,0,1,3-1.08,51.1,51.1,0,0,1,7.32,0,12.56,12.56,0,0,1,3.38,1.27c-.53,1.08-.82,2.42-1.64,3.21-5,4.8-10.07,9.52-15.19,14.19-1.4,1.28-1.66,2.08-.26,3.79,6.05,7.34,11.88,14.87,17.73,22.38a15.73,15.73,0,0,1,1.45,3.1,13.93,13.93,0,0,1-3.42,1.23c-2.34.19-4.72-.06-7.06.09-1.76.11-2.69-.8-3.56-2.08-2.46-3.6-5-7.15-7.42-10.76a4.89,4.89,0,0,1-.93-2.37C149.8,149.69,149.85,145.5,149.85,141.31Z"/><path d="M34.64,101.4c4.82,0,9.44.07,14,0,3.29-.06,6.57-.3,9.85-.51,1.55-.1,2.26.48,2.19,2.1a46.12,46.12,0,0,0,0,5.76c.21,2.78-.46,3.22-3.33,3.15-5.38-.14-10.76-.26-16.13-.55-2.33-.13-3.2.47-3.18,3,.12,16.07.06,32.13.07,48.2a9.53,9.53,0,0,0,.15,2.07c.83,3.7.45,4.24-3.68,4.86Z"/><path d="M188.72,160.11c-3.49-7.63-6.75-14.72-10-21.83-2.32-5.12-4.6-10.25-6.88-15.39-.84-1.91-.23-3,1.79-3.11a36.39,36.39,0,0,1,7.31.1,4.77,4.77,0,0,1,2.88,2.6c1.84,4.13,3.39,8.38,5,12.6a4.14,4.14,0,0,1,.29,1.47q0,11.12,0,22.25A6.93,6.93,0,0,1,188.72,160.11Z"/><path d="M238.3,162.42c-11.51-7.36-12.17-33,0-41.56Z"/><path d="M107.6,118.29c10.57,9.24,10.54,31,0,40.16Z"/><path d="M189.17,186.87c-4,0-7.78.13-11.52,0-3-.14-3.78-1.73-2.68-4.54.55-1.42.92-2.91,1.38-4.37.57-1.8,1.87-1.8,3.33-1.3,6.31,2.16,6.8.25,8.7-3.85.06-.11.29-.14.79-.38v14.48Z"/><path d="M189.17,209.72c0,10.7,0,21.44,0,32.17a3,3,0,0,1-1.22,1.92c-6.32,4.84-12.8,9.49-19,14.5-1.71,1.38-2.65,3.73-3.87,5.68s-.23,2.49,1.62,2.49H189v9.75h-37.9c.34-2.66.48-5.39,1-8,2.22-10.41,8.78-17.72,17.14-23.76,5.21-3.76,10.4-7.56,15.4-11.59a9.32,9.32,0,0,0,3.58-7.83c-.22-4.32-2-6.41-6.48-7.28s-9.12-1.36-13.43,1.47c-3.24,2.12-4,5.41-4.86,8.67-.86,3.1-1.24,3.4-4.25,2.69a21.26,21.26,0,0,0-4.29-.72c-2.54,0-2.85-1.57-2.48-3.46,2.26-11.44,10.08-19,22.27-19.18C179.72,207.12,184.52,207.53,189.17,209.72Z"/><path d="M107.38,264.6c3.41,0,6.49.32,9.48-.07,5.67-.74,8.29-4.93,9.88-9.87,2.3-7.1,2.57-14.47,2-21.8-.36-5.07-1.35-10.15-4.31-14.53a13,13,0,0,0-13-5.26c-1.25.27-2.48.59-3.9.93V203.87c9.46-2.64,20,.37,25.71,8.37,3.82,5.39,5.43,11.41,6,17.74a94.84,94.84,0,0,1,.49,15.34c-.62,8.85-2.68,17.33-9.57,23.72a20.81,20.81,0,0,1-14.17,5.82c-2.19,0-4.37,0-6.56,0-1.36,0-2.16-.34-2.13-1.9C107.42,270,107.38,267.06,107.38,264.6Z"/><path d="M238.37,205.48v10.33c-7.5,1.36-11.29,5.2-12.45,13.1a98.09,98.09,0,0,0-1.49,15.9c.1,6,.73,12.1,4.52,17.31,1.93,2.65,4.24,4.44,7.51,4.88,1.39.19,2.1.78,2,2.35-.12,2.6,0,5.21,0,8.1-5.45.17-9.94-1.75-14.05-4.83-5.53-4.15-8.33-10-9.43-16.52a106.4,106.4,0,0,1-1.57-18.77c.09-7.75,1.69-15.41,6.31-21.87a21.94,21.94,0,0,1,14.33-9.28C235.39,206,236.74,205.74,238.37,205.48Z"/><path d="M247,271.18v-9.75c9-.6,12.1-6.08,13.36-13.28a97.72,97.72,0,0,0,1.06-18.35,35,35,0,0,0-2.26-10.45c-1.91-5.59-6-8.6-12.16-8.54v-9.74c4.89-.65,9.23.93,13.23,3.56,5.86,3.84,9,9.52,10.51,16.21,2.6,11.19,2.85,22.32-.82,33.33-3.25,9.78-10.09,15.4-20.24,17A17,17,0,0,1,247,271.18Z"/><path d="M34.54,224V209.49c9.39-3.32,18.57-3.73,27.48,1.83,7.95,5,9.49,15.45,5.21,22.87-2.43,4.19-5.82,7.14-9.55,9.95-6.1,4.59-12.24,9.15-18.13,14-2,1.62-3.26,4.09-5,6.43,0-5.3,0-10.4,0-15.5a2.86,2.86,0,0,1,1.2-1.85c6-4.32,12.1-8.4,17.88-12.93,3-2.33,5.24-5.42,5-9.69-.18-3.28-2-6.23-5.27-6.78a38.94,38.94,0,0,0-9.81-.52C39.46,217.68,36.47,220.11,34.54,224Z"/><path d="M95.31,277.24a75.32,75.32,0,0,1-7.55-3.9,23.47,23.47,0,0,1-9.32-12.83c-2.51-7.81-2.89-15.77-2.44-23.77.39-6.82,1.57-13.56,5.63-19.43a23.4,23.4,0,0,1,11-8.75,4.33,4.33,0,0,1,1-.27c.43,0,.87,0,1.66,0,0,3.17,0,6.28,0,9.38a1.7,1.7,0,0,1-.71,1.15c-4.67,3.11-6.12,7.89-7.16,13a57.19,57.19,0,0,0,.65,24.57,15.78,15.78,0,0,0,6.11,9.2,2.71,2.71,0,0,1,1.09,1.72C95.37,270.29,95.31,273.25,95.31,277.24Z"/><path d="M34.62,276.43V266.1c.72-.05,1.47-.14,2.21-.14,10.29,0,20.59.06,30.88-.06,2.36,0,3.07.87,3,3a41,41,0,0,1-.11,5.21c-.15.86-1.23,2.2-1.9,2.21C57.37,276.47,46.06,276.43,34.62,276.43Z"/><path d="M197.13,241.75v-33a14.56,14.56,0,0,1,9.2,10C208.8,228.26,205.29,235.81,197.13,241.75Z"/><path d="M28.59,247.31v26.5c-3.5,0-6.87.1-10.24-.09-.59,0-1.62-1.28-1.61-1.94a32.64,32.64,0,0,1,5.82-18.23c1.62-2.35,3.57-4.47,5.37-6.7Z"/><path d="M28.72,206.17c0,6.92,0,13.15-.08,19.37a2.35,2.35,0,0,1-1.76,1.52,67.94,67.94,0,0,1-7.08-.94c-2.07-.33-2.36-1.74-1.94-3.48,1.14-4.76,2.9-9.26,6.22-12.94C25.22,208.44,26.82,207.58,28.72,206.17Z"/><path d="M197.15,276.2v-10c2.87-.25,5.75-.67,8.63-.65a3.17,3.17,0,0,1,2.16,2.16,27.41,27.41,0,0,1,0,7,3.16,3.16,0,0,1-2.27,2C202.94,276.82,200.2,276.43,197.15,276.2Z"/></g></g></g></svg>