<svg xmlns="http://www.w3.org/2000/svg" viewBox="0 0 574.42 671.57"><defs><style>.cls-1{fill:#0d1a63;}.cls-2{fill:#333;}</style></defs><title>Asset 1</title><g id="Layer_2" data-name="Layer 2"><g id="Layer_1-2" data-name="Layer 1"><path class="cls-1" d="M36.31,1.19c9.42,0,16.91,1.72,22.24,5.55s8.86,10,8.86,18.65c0,19-16.21,26.69-28.84,26.71A24.35,24.35,0,0,1,35,51.84l-8.72-2.27V69.39c0,10.92.91,11.23,12.76,12.48v3.86H2.15V81.87C13.08,80.7,13.74,80,13.74,69.18V17.9C13.74,6.44,12.33,6,2.15,5.05V1.19Zm-10,43.66a22.37,22.37,0,0,0,9,1.62c8.22,0,18.82-4.25,18.82-20.78,0-14.35-9.1-19.91-19.58-19.91-3.59,0-6.11.65-6.89,1.51-1,.89-1.38,2.4-1.38,5.63Z"/><path class="cls-1" d="M106.78,85.73H76.07V81.94c8-.78,8.72-1.43,8.72-9.76V44.87c0-8.21-.53-8.65-7.81-9.63V31.85a80.31,80.31,0,0,0,19.25-5.26V40.85C101,33.69,106.34,27,112.63,27c4.81,0,7.71,3,7.71,6.52a9.45,9.45,0,0,1-4.82,7.85A2.73,2.73,0,0,1,112,41c-2-1.92-3.58-3.36-5.9-3.36-2.59,0-7.12,3.61-9.89,9.93v24.5c0,8.44.7,9.05,10.55,9.87Z"/><path class="cls-1" d="M154.19,27c16.63,0,28.63,12.61,28.63,29.17,0,21.05-15.51,31.16-28.72,31.16-18.25,0-29.22-14.51-29.22-29.19C124.88,37.13,141.37,27,154.19,27Zm-1.56,4.56c-7.51,0-14.36,7.34-14.36,22.59,0,16.45,6.93,28.48,17.15,28.48,7.5,0,14-5.4,14-23.43C169.43,43.43,163.47,31.52,152.63,31.52Z"/><path class="cls-1" d="M242,73.86c-5.77,7.73-14.48,13.43-22.31,13.43C202.92,87.29,193,73.87,193,59.86c0-10.16,4.52-18.83,13.16-25.37C213.38,29,221.25,27,226.47,27c5.68,0,9.95,1.75,12,3.44,1.82,1.41,2.15,2.43,2.15,4,0,3.21-3.34,6.11-4.89,6.11-.7,0-1.29-.29-2.54-1.33-4.31-3.83-8.73-5.69-13.2-5.69-8,0-15.24,6.86-15.24,20.48-.11,17.93,12.29,23.85,19.49,23.85,5.43,0,9.76-1.44,15.51-6.85Z"/><path class="cls-1" d="M296.75,74.37c-8.25,10.64-17.59,12.92-22,12.92-16.14,0-25.82-13-25.82-28a33.57,33.57,0,0,1,8.69-22.88c5.53-6.07,12.71-9.42,19.54-9.42,11.58,0,20.21,9.89,20.18,20.34-.1,2.53-.45,3.89-2.43,4.39-2.58.54-19.53,1.66-34.49,2.18-.23,16.78,9.9,23.91,19.15,23.91,5.29,0,10.25-2.15,15-6.5ZM274.15,32c-5.85,0-11.44,5.68-13.07,16.17,6.93,0,13.79,0,21.06-.39,2.25,0,3-.6,3-2.6C285.3,38.33,281,32,274.15,32Z"/><path class="cls-1" d="M339.5,44.25c-2.53-7.82-6.09-12.84-13.7-12.84-4.39,0-7.85,3.14-7.85,8.17,0,5.41,3.68,8,10.86,11.3,11.07,5.21,16.95,9.21,16.95,18.1,0,12.15-11.19,18.31-21.65,18.31a35.51,35.51,0,0,1-15.66-3.69c-.63-3.63-1.8-11.11-2.3-15.45l3.87-.67c2.41,8.29,7.1,15.22,16.09,15.22,4.94,0,8.8-3.31,8.8-8.47,0-5.52-3.23-8.51-10.33-12C315.57,57.87,308,53.64,308,44s8.13-17,20.64-17c5.6,0,10.09,1.3,12.76,1.73.39,3.2,1.35,11.41,2,14.6Z"/><path class="cls-1" d="M388.53,44.25c-2.53-7.82-6.09-12.84-13.7-12.84-4.39,0-7.85,3.14-7.85,8.17,0,5.41,3.68,8,10.87,11.3,11.06,5.21,16.94,9.21,16.94,18.1,0,12.15-11.19,18.31-21.65,18.31a35.51,35.51,0,0,1-15.66-3.69c-.63-3.63-1.8-11.11-2.29-15.45l3.86-.67c2.41,8.29,7.1,15.22,16.09,15.22,4.94,0,8.8-3.31,8.8-8.47,0-5.52-3.23-8.51-10.33-12C364.6,57.87,357,53.64,357,44s8.13-17,20.64-17c5.6,0,10.09,1.3,12.76,1.73.39,3.2,1.35,11.41,2,14.6Z"/><path class="cls-1" d="M403,85.73V81.94c8-.8,8.87-1.43,8.87-10.34V45.07c0-8.18-.44-8.7-7.94-9.91V31.83a94.81,94.81,0,0,0,19.38-5.11V71.6c0,8.84.84,9.54,9.13,10.34v3.79Zm13.83-70.89a7.53,7.53,0,0,1-7.34-7.31A7.43,7.43,0,0,1,417,0a7.2,7.2,0,0,1,7.12,7.53A7.34,7.34,0,0,1,416.83,14.84Z"/><path class="cls-1" d="M476.24,85.73V81.94c7.17-.78,7.88-1.62,7.88-10.48V49.86c0-9.13-3.49-14.66-11.34-14.66-5,0-9.66,2.8-13.6,6.25V72.07c0,8.79.74,9.09,8,9.87v3.79H438.7V81.94c8.26-1,9-1.4,9-10V45.14c0-8.34-.93-8.73-7.72-9.9V31.72a83.93,83.93,0,0,0,19.21-5.15c0,2.78-.05,7-.05,10.11,2.6-1.82,5.44-3.77,8.75-5.92,3.69-2.34,6.91-3.8,10.68-3.8,10.43,0,16.95,7.67,16.95,20.4V72.05c0,8.7.78,9.09,8.09,9.89v3.79Z"/><path class="cls-1" d="M528.66,66.5c-2.79,2.29-3.94,4.62-3.94,6.13,0,2.3,2.26,4.92,7.95,4.92,4.69,0,10.3-.11,14.59-.11,8.25,0,19.08,2.83,19.08,15.68,0,13.74-16.35,26.3-33.65,26.3-15.11,0-23-8.54-23.21-16.12a9.74,9.74,0,0,1,3.37-7.37,135.51,135.51,0,0,1,10.5-8.85A17.22,17.22,0,0,1,513.59,80a11.46,11.46,0,0,1-1.65-5.87,29.38,29.38,0,0,0,12.34-9.07Zm6.25,1.31c-12.59,0-22.53-7.51-22.53-19.64,0-14.69,13.31-21.53,23.73-21.53A27.5,27.5,0,0,1,549,29.91,89,89,0,0,0,566.52,28l.75,1.15c-.78,2.13-2.79,5.89-4.81,7.1-2,0-6.17-.52-8-.65a19.35,19.35,0,0,1,3.65,11.63C558.12,61.17,546.37,67.81,534.91,67.81Zm2.73,19.66c-6.42,0-9.35.78-11.62,2.69-3.39,2.78-5.78,6.45-5.78,10,0,7.11,7.25,12.44,17.48,12.44,11.93,0,18.81-6.07,18.81-14.16,0-4.49-2.27-7.93-6-9.4C547.25,87.73,543,87.47,537.64,87.47Zm-2.71-56.53c-5.53,0-10.52,5.24-10.52,15.37s4.81,17.19,11.77,17.19c5.61-.21,10.28-5.12,10.28-15.44C546.46,38.27,542,30.94,534.93,30.94Z"/><path class="cls-2" d="M50.6,171A112,112,0,0,1,46,184a72.22,72.22,0,0,1-15.17,2.09C9.49,186.08,0,172.2,0,158.6c0-17,13-28.6,32.32-28.6,7.16,0,13.32,1.65,15.61,1.95.39,3.83,1,9.53,1.57,13.34l-3,.58c-1.71-6.13-4-9.3-8.33-11a21.33,21.33,0,0,0-7.71-1.3c-12.55,0-19,10-19,23.22,0,15.4,7.93,25.64,20,25.64,7.46,0,11.91-3.72,16.29-12.51Z"/><path class="cls-2" d="M76.43,147.32c11.19,0,18.65,8.44,18.65,18.61,0,13.33-9.69,19.9-18.86,19.9A18.58,18.58,0,0,1,57.08,167,19.27,19.27,0,0,1,76.43,147.32Zm-1,3.13c-4.07,0-7.91,4.12-7.91,14.08,0,10.33,3.82,18.09,9.57,18.09,3.83,0,7.53-2.7,7.53-14.5C84.63,157.28,81.31,150.45,75.44,150.45Z"/><path class="cls-2" d="M145.69,184.84v-2.63c3.86-.5,4.43-.83,4.43-6.13V162c0-6.51-2.78-8.62-6.24-8.62-2.17,0-4.42.93-7.18,3.17.08,1,.19,2.14.19,3.5v16.45c0,4.83.42,5.24,4.48,5.74v2.63H123.11v-2.63c4.15-.5,4.63-.78,4.63-5.8V161.67c0-5.95-2.17-8.37-5.92-8.37-2.5,0-4.92,1.26-7.31,3.11v20c0,4.92.52,5.3,4.15,5.8v2.63H100.15v-2.63c4.87-.55,5.2-.88,5.2-6V158.83c0-4.85-.17-5.45-4.31-6.12v-2.44a69.12,69.12,0,0,0,13.47-3.2v6.37c1.78-1.26,3.36-2.45,5.41-3.7,2.39-1.48,4.31-2.42,6.85-2.42,4.39,0,7.56,2.48,9.16,6.45,2.1-1.6,3.92-2.84,6-4.25a12.67,12.67,0,0,1,6.58-2.2c6.92,0,10.78,4.79,10.78,13.1v16c0,4.89.44,5.19,4.72,5.8v2.63Z"/><path class="cls-2" d="M214,184.84v-2.63c3.85-.5,4.43-.83,4.43-6.13V162c0-6.51-2.79-8.62-6.24-8.62-2.18,0-4.42.93-7.19,3.17.09,1,.2,2.14.2,3.5v16.45c0,4.83.42,5.24,4.48,5.74v2.63H191.41v-2.63c4.16-.5,4.63-.78,4.63-5.8V161.67c0-5.95-2.16-8.37-5.91-8.37-2.5,0-4.92,1.26-7.32,3.11v20c0,4.92.53,5.3,4.16,5.8v2.63H168.46v-2.63c4.86-.55,5.2-.88,5.2-6V158.83c0-4.85-.17-5.45-4.32-6.12v-2.44a68.79,68.79,0,0,0,13.47-3.2v6.37c1.79-1.26,3.36-2.45,5.42-3.7,2.38-1.48,4.31-2.42,6.84-2.42,4.4,0,7.57,2.48,9.17,6.45,2.09-1.6,3.92-2.84,6-4.25a12.6,12.6,0,0,1,6.57-2.2c6.93,0,10.79,4.79,10.79,13.1v16c0,4.89.44,5.19,4.72,5.8v2.63Z"/><path class="cls-2" d="M277.41,182.89a143.5,143.5,0,0,0-14.63,2.94V180c-3.76,3.12-7.28,5.87-11.83,5.87-6.44,0-10.64-4.08-10.64-12V157.1c0-4-.56-4.48-2.73-5l-1.94-.46v-2.47c4-.17,10.13-.83,14.12-1.43-.19,3.18-.24,7.35-.24,12.32v11.77c0,6,3.1,7.94,6.28,7.94a9.32,9.32,0,0,0,7-2.94V157.15c0-4-.61-4.66-3.1-5.07l-2.53-.44v-2.47c5-.2,11.55-.89,14.9-1.43v27.18c0,4.24.55,5,3.37,5.25l2,.14Z"/><path class="cls-2" d="M305.08,184.84v-2.63c3.93-.5,4.26-.92,4.26-6.59v-14c0-5.83-2.6-8.37-6.39-8.37-2.58,0-4.89,1.23-7.23,3.11v19.76c0,5.27.39,5.54,4.29,6v2.63h-18.7v-2.63c4.7-.69,5.2-.86,5.2-6.26V158.83c0-5.1-.63-5.35-4.56-6.09v-2.47a70.89,70.89,0,0,0,13.88-3.2c-.06,1.42-.11,4.22-.11,6.15,1.65-1.15,3.41-2.39,5.4-3.63,2.42-1.49,4.19-2.27,6.59-2.27,6.66,0,10.84,4.87,10.84,13.16v15.63c0,5.3.5,5.55,4.75,6.1v2.63Z"/><path class="cls-2" d="M327.74,184.84v-2.63c4.72-.55,5.24-.91,5.24-6.69V159.1c0-5.39-.35-5.72-4.61-6.33V150.3a76.9,76.9,0,0,0,13.82-3.09v28.31c0,5.62.42,6.14,5.41,6.69v2.63ZM337,141.1a5.48,5.48,0,0,1-5.39-5.34,5.4,5.4,0,0,1,5.48-5.4,5.28,5.28,0,0,1,5.34,5.4A5.39,5.39,0,0,1,337,141.1Z"/><path class="cls-2" d="M368.23,184.87a8.67,8.67,0,0,1-3.39,1c-6,0-9.44-3.06-9.44-10.26V152.18H350l-.43-1,2.33-2.88h3.53v-6.88c2.38-1.87,5.85-4.34,8.28-6.2l1.13.48c-.11,2.67-.25,7.19-.2,12.6h8.67c.74.83.44,3.13-.6,3.87h-8.07v20.56c0,6.53,2.65,7.44,4.42,7.44a10.83,10.83,0,0,0,4.34-1l.8,2.69Z"/><path class="cls-2" d="M416.42,150.92c-4.08.61-4.94,1.37-7,5.92s-4.35,10.4-9.46,22.9A241.55,241.55,0,0,0,391.41,203c-.55,1.79-1.51,2.31-2.8,2.31-3,0-6-2.22-6-4.83,0-1.23.53-1.92,2.09-3,3-1.91,5.13-3.62,6.44-6a46.63,46.63,0,0,0,2.53-5.61,4.4,4.4,0,0,0-.27-3.22c-3.92-11-8.92-21.94-10.75-26.28-1.6-3.84-2.51-4.83-6.67-5.41v-2.61h19.26v2.61c-3.64.58-4.16,1.24-3.19,4l7,18.44c2-5,5.08-13.1,6.65-17.93.88-2.81,0-3.83-4.38-4.49v-2.61h15.12Z"/><path class="cls-2" d="M462.38,131.15c10.95,0,18.57,2.26,23.8,7.19,4.15,3.91,7.28,9.69,7.28,17.89,0,9.56-4,17-10.32,21.82-6.17,4.65-14.07,6.79-23.75,6.79H437.86v-2.79c6.57-.56,7.17-1.24,7.17-8.07V142c0-7-.94-7.54-7.17-8.09v-2.8ZM455,173.37c0,6,1.9,7.88,8,7.88,12.45,0,19.3-8.6,19.3-23.81,0-8.25-2.46-15.11-7.22-18.8-3.58-3.1-8.05-4.17-13.58-4.17-3.29,0-4.9.61-5.51,1.16s-1,1.89-1,4.57Z"/><path class="cls-2" d="M527.21,185.83a7,7,0,0,1-4.69-1.67,7.82,7.82,0,0,1-2.09-3.29c-3.2,2.12-7.24,5-9.16,5a10.6,10.6,0,0,1-10.83-10.48c0-4.26,2.07-6.47,6.51-8.15,4.93-1.79,11.34-3.83,13.21-5.42v-2.94c0-4.85-2.06-7.59-5.87-7.59a4.33,4.33,0,0,0-3.51,1.74c-1,1.26-1.38,3-2.07,5.42a2.93,2.93,0,0,1-3.15,2.49c-1.94,0-4.44-1.87-4.44-4.06,0-1.37,1-2.42,2.84-3.68a38.79,38.79,0,0,1,12.75-5.84,13.44,13.44,0,0,1,8,2.34c3.32,2.48,4.43,5.72,4.43,10v14.86c0,3.91,1.35,5,2.73,5a6.36,6.36,0,0,0,2.7-.75l.88,2.64ZM520.16,165c-1.6.85-4,2-5.7,2.88-2.76,1.35-4.39,2.86-4.39,5.76,0,4.54,3.25,6.31,5.36,6.31a6.86,6.86,0,0,0,4.73-1.9Z"/><path class="cls-2" d="M574.42,150.92c-4.08.61-4.94,1.37-7,5.92s-4.35,10.4-9.46,22.9A241.55,241.55,0,0,0,549.41,203c-.55,1.79-1.51,2.31-2.8,2.31-3,0-6-2.22-6-4.83,0-1.23.53-1.92,2.09-3,3-1.91,5.13-3.62,6.45-6a47.87,47.87,0,0,0,2.52-5.61,4.4,4.4,0,0,0-.27-3.22c-3.92-11-8.91-21.94-10.75-26.28-1.6-3.84-2.51-4.83-6.67-5.41v-2.61h19.26v2.61c-3.64.58-4.16,1.24-3.19,4l7,18.44c2-5,5.08-13.1,6.65-17.93.88-2.81,0-3.83-4.38-4.49v-2.61h15.12Z"/><path class="cls-1" d="M189.63,281.66q16.77,5.29.88,13.25v23.85h53.9l17.67-17.67,20.32,16.79q3.53,3.54-.88,6.19h-91v23h38l10.61-13.25,17.67,17.67q8,10.59-5.3,11.48v57.43L247.06,423q-13.26,5.31-15.91,0V408.89h-38q33.57,38.88,95.42,56.54-13.24,6.18-15.9,9.72-3.54,2.66-9.72,11.49-42.4-22.09-72.45-68.92v69.8l-4.42,2.65q-13.25,5.31-15.9,0V432.74q-35.35,37.11-87.47,57.43c-3,0-3.25-.88-.89-2.65a252.81,252.81,0,0,0,81.29-78.63H127.78v15l-4.42,2.65q-13.26,5.29-15.9,0v-91l23,11.49h39.76v-23H82.72v-5.31h87.47V279.89Zm-61.85,93.65h42.41v-23H127.78Zm0,28.28h42.41v-23H127.78Zm62.73-28.28h40.64v-23H190.51Zm0,28.28h40.64v-23H190.51Z"/><path class="cls-1" d="M379.59,424.79q9.71,7.95-7.95,8.84A182.48,182.48,0,0,1,308,477.8q-3.54,0,0-2.65,30-22.06,53-63.61Zm39.76-138.72q14.13,3.54-1.77,11.49v20.32h56.55l17.67-17.67L512.12,317q3.52,3.54-.88,6.18H308v-5.3h89.24V282.54Zm61,68q8,10.61-5.3,11.48v39.76L470.6,408q-13.26,5.31-15.91,0V397.4H417.58v82.17a18.82,18.82,0,0,1-7.95,7.07,49.34,49.34,0,0,1-9.72,4.42q-7.95,2.64-8-1.77l-.88-8c0-1.19-.89-2.07-2.66-2.65L362.8,468.08c-1.77-1.76-1.47-2.65.89-2.65q15.9.9,30.92.89a2.34,2.34,0,0,0,2.65-2.65V397.4H361v8.84l-4.41,2.65q-13.26,5.3-15.91,0V338.2l22.09,11.49H452l10.6-13.25ZM361,392.1h93.66V355H361Zm135.19,70.68q0,11.48-11.49,11.49-6.19,0-11.48-9.72a137.62,137.62,0,0,0-45.06-45.06q-3.56-3.53.88-3.53Q496.21,437.16,496.22,462.78Z"/><path class="cls-2" d="M212.44,661.94c-.85,2.9-1.9,6.48-2.47,8.77H187.48v-1.48c3.06-3,6.41-6.37,9.28-9.62,4-4.59,6.49-8.7,6.49-13.33,0-4.28-2.18-6.95-6.15-6.95-3.6,0-6,2.64-7.8,5.16l-1.57-1.35,3.51-5.13a10.93,10.93,0,0,1,8.41-3.5c5.6,0,10.21,3.82,10.21,10.09,0,4.58-1.73,7.89-7.41,13.31-2.3,2.23-5.64,5.38-7.83,7.34h10c3.37,0,4.12-.25,6.17-3.84Z"/><path class="cls-2" d="M228.28,634.51c9.3,0,12.49,10,12.49,18.41s-3.19,18.47-12.49,18.47S215.7,661.47,215.7,653,219.06,634.51,228.28,634.51Zm-.07,2.29c-4.37,0-5.43,8.27-5.43,16s1.34,16.31,5.54,16.31,5.35-8.31,5.35-16.25S232.43,636.8,228.21,636.8Z"/><path class="cls-2" d="M247.34,670.71v-1.93c6-.32,6.41-.83,6.41-5V642.71c0-2.91-.81-3.1-3.21-3.36l-2.08-.29v-1.72a56.65,56.65,0,0,0,11.87-2.83v29.27c0,4.26.35,4.68,6.36,5v1.93Z"/><path class="cls-2" d="M289.91,654.81l-3.19,1.64a7.22,7.22,0,0,1-3.35.93,10.37,10.37,0,0,1-10.78-10.73,12.32,12.32,0,0,1,12.65-12.14c7.73,0,12.2,6.65,12.2,14.4,0,10.38-6.79,17.86-14.79,21a32,32,0,0,1-7.82,1.67l-.42-2C283.1,667.58,288.25,662.46,289.91,654.81Zm-5.68-18c-3.56,0-5,3.25-5,7.8,0,5,2.72,9.1,7.14,9.1a7.5,7.5,0,0,0,3.83-1.06,27.15,27.15,0,0,0,.26-4C290.51,643.28,289,636.73,284.23,636.77Z"/><path class="cls-2" d="M306,671.43a4.37,4.37,0,0,1,0-8.74,4.37,4.37,0,0,1,0,8.74Z"/><path class="cls-2" d="M339.55,661.94c-.86,2.9-1.9,6.48-2.47,8.77H314.59v-1.48c3.06-3,6.41-6.37,9.27-9.62,4-4.59,6.5-8.7,6.5-13.33,0-4.28-2.18-6.95-6.16-6.95-3.6,0-6.05,2.64-7.79,5.16l-1.57-1.35,3.51-5.13a10.92,10.92,0,0,1,8.4-3.5c5.6,0,10.21,3.82,10.21,10.09,0,4.58-1.73,7.89-7.4,13.31-2.3,2.23-5.64,5.38-7.83,7.34h10c3.37,0,4.12-.25,6.17-3.84Z"/><path class="cls-2" d="M347.75,671.43a4.37,4.37,0,0,1,0-8.74,4.37,4.37,0,0,1,0,8.74Z"/><path class="cls-2" d="M381.33,661.94c-.86,2.9-1.9,6.48-2.47,8.77H356.37v-1.48c3.06-3,6.41-6.37,9.27-9.62,4-4.59,6.5-8.7,6.5-13.33,0-4.28-2.18-6.95-6.15-6.95-3.6,0-6.06,2.64-7.8,5.16l-1.57-1.35,3.51-5.13a10.92,10.92,0,0,1,8.4-3.5c5.6,0,10.21,3.82,10.21,10.09,0,4.58-1.73,7.89-7.4,13.31-2.3,2.23-5.64,5.38-7.83,7.34h10c3.37,0,4.12-.25,6.17-3.84Z"/></g></g></svg>