<svg xmlns="http://www.w3.org/2000/svg" width="1862.844" height="1065.892" viewBox="0 0 1862.844 1065.892">
  <g id="グループ_15" data-name="グループ 15" transform="translate(-752.167 -4691.653)">
    <g id="グループ_14" data-name="グループ 14">
      <path id="パス_51" data-name="パス 51" d="M896.86,4958.5H792.935V4698.883H958.368q67.332,0,103.131,22.725t35.791,64.042q0,41.319-35.791,64.043t-103.131,22.724H896.86Zm0-140.479h34.466q57.266,0,57.266-32.366t-57.266-32.366H896.86Z" fill="#1d1569"/>
      <path id="パス_52" data-name="パス 52" d="M1433.985,4785.65q-36.064-28.575-89.08-28.578a161.523,161.523,0,0,0-43.214,5.509q-19.883,5.511-34.2,14.978a74.811,74.811,0,0,0-22.535,22.553,52.078,52.078,0,0,0-8.219,28.233,52.647,52.647,0,0,0,8.219,28.578,75.387,75.387,0,0,0,22.8,22.725,120.583,120.583,0,0,0,34.2,15.149,156.235,156.235,0,0,0,42.419,5.509q49.833,0,89.609-27.545v79.881l-10.6,2.41a444.073,444.073,0,0,1-44.54,8.092,329.371,329.371,0,0,1-40.828,2.582,305.192,305.192,0,0,1-79.271-10.157q-37.915-10.152-66.809-28.579t-46.4-43.727a96.069,96.069,0,0,1-.265-110.181q17.225-24.959,46.13-43.039t67.076-28.233a310.266,310.266,0,0,1,80.065-10.157,334.107,334.107,0,0,1,46.926,3.27,404.04,404.04,0,0,1,48.516,10.157Z" fill="#1d1569"/>
      <path id="パス_53" data-name="パス 53" d="M1499.73,4698.883H1653.5q40.824,0,76.619,10.674t62.568,28.4q26.767,17.738,42.154,41.318t15.376,49.409q0,25.485-15.112,49.065t-41.888,41.489q-26.781,17.908-62.568,28.579T1653.5,4958.5H1499.73Zm103.926,202.456h23.862q27.041,0,48.251-5.509t35.791-15.149q14.575-9.636,22.269-22.9a57,57,0,0,0,7.689-29.094,55.773,55.773,0,0,0-7.954-28.922,71.3,71.3,0,0,0-22.535-23.07q-14.589-9.633-35.791-15.149t-47.72-5.509h-23.862Z" fill="#1d1569"/>
      <g id="グループ_12" data-name="グループ 12">
        <path id="パス_54" data-name="パス 54" d="M1089.245,5750.314H767.393v-15.127s64.729-30.827,99.154-51.67c27-16.348,46.66-32.65,61.507-44.932s25.89-22.666,33.139-31.16,11.748-15.376,13.522-20.66a43.763,43.763,0,0,0,2.651-13.428,24.06,24.06,0,0,0-2.917-11.363,29.454,29.454,0,0,0-8.749-9.812,47.541,47.541,0,0,0-14.051-6.887,64.861,64.861,0,0,0-19.353-2.582q-21.215,0-33.14,8.952t-11.93,22.381a55.858,55.858,0,0,0,1.59,11.018H775.346a77.447,77.447,0,0,1,11.4-41.318q11.4-18.593,32.079-32.021t49.047-20.658q28.359-7.231,62.3-7.232,33.4,0,61.772,6.887t49.047,19.281q20.679,12.4,32.345,29.44A64.276,64.276,0,0,1,1085,5576.436q0,21.354-14.052,39.424t-44.805,37.014l-66.279,40.284h129.377Z" fill="#1d1569"/>
        <path id="パス_55" data-name="パス 55" d="M1134.842,5620.164q0-30.989,12.461-56.295a125.242,125.242,0,0,1,34.995-43.212q22.53-17.9,53.554-27.717t68.666-9.813q37.107,0,68.4,9.813t53.554,27.717a126.681,126.681,0,0,1,34.73,43.212q12.453,25.307,12.461,56.295t-12.461,56.295a128.358,128.358,0,0,1-34.73,43.384q-22.271,18.075-53.554,27.889t-68.4,9.813q-37.656,0-68.666-9.813t-53.554-27.889a126.877,126.877,0,0,1-34.995-43.384Q1134.838,5651.152,1134.842,5620.164Zm102.866,0a97.41,97.41,0,0,0,4.771,31.332A74.024,74.024,0,0,0,1256,5675.942a60.719,60.719,0,0,0,20.944,16.011,69.11,69.11,0,0,0,54.879,0,57.714,57.714,0,0,0,20.945-16.011,76.907,76.907,0,0,0,13.255-24.446,104.662,104.662,0,0,0,0-62.492,74.613,74.613,0,0,0-13.255-24.447,58.636,58.636,0,0,0-20.945-15.839,69.121,69.121,0,0,0-54.879,0A61.752,61.752,0,0,0,1256,5564.557,71.892,71.892,0,0,0,1242.479,5589,97.886,97.886,0,0,0,1237.708,5620.164Z" fill="#1d1569"/>
        <path id="パス_56" data-name="パス 56" d="M1830.508,5750.314H1508.655v-15.127s64.73-30.827,99.155-51.67c27-16.348,46.66-32.65,61.506-44.932s25.891-22.666,33.14-31.16,11.748-15.376,13.522-20.66a43.765,43.765,0,0,0,2.651-13.428,24.072,24.072,0,0,0-2.917-11.363,29.455,29.455,0,0,0-8.749-9.812,47.553,47.553,0,0,0-14.051-6.887,64.866,64.866,0,0,0-19.353-2.582q-21.214,0-33.14,8.952t-11.931,22.381a55.88,55.88,0,0,0,1.591,11.018H1516.608a77.438,77.438,0,0,1,11.4-41.318q11.4-18.593,32.079-32.021t49.047-20.658q28.359-7.231,62.3-7.232,33.4,0,61.772,6.887t49.047,19.281q20.679,12.4,32.345,29.44a64.277,64.277,0,0,1,11.665,37.013q0,21.354-14.052,39.424t-44.8,37.014l-66.279,40.284h129.377Z" fill="#1d1569"/>
        <path id="パス_57" data-name="パス 57" d="M1965.9,5553.358h-58.327V5496.2h162.252v259.612H1965.9Z" fill="#1d1569"/>
      </g>
      <g id="グループ_13" data-name="グループ 13">
        <path id="パス_58" data-name="パス 58" d="M1012.995,5089.111v180.076a100.744,100.744,0,0,1-2.06,21,46.107,46.107,0,0,1-6.772,16.528,80.727,80.727,0,0,1-20.9,20.141,134.756,134.756,0,0,1-30.91,15.494,225.817,225.817,0,0,1-39.155,9.986,271.369,271.369,0,0,1-45.041,3.615q-71.247,0-115.989-38.219l58.92-52.225a87.785,87.785,0,0,0,21.641,22.215c8.8,6.352,22.668,10.384,32.484,10.384q32.375,0,32.383-29.955V5089.111Z" fill="#1d1569"/>
        <path id="パス_59" data-name="パス 59" d="M1332.281,5303.618H1189.6l-22.931,45.1h-106.5l146.25-259.612h109.051l146.251,259.612h-106.5Zm-26.5-51.3-44.844-86.422-44.842,86.422Z" fill="#1d1569"/>
        <path id="パス_60" data-name="パス 60" d="M1614.591,5348.723H1510.665V5089.111H1676.1q67.33,0,103.13,22.725t35.792,64.042q0,41.319-35.792,64.043t-103.13,22.724h-61.508Zm0-140.479h34.466q57.264,0,57.265-32.366t-57.265-32.366h-34.466Z" fill="#1d1569"/>
        <path id="パス_61" data-name="パス 61" d="M2083.959,5303.618H1941.275l-22.93,45.1h-106.5l146.25-259.612h109.051l146.251,259.612h-106.5Zm-26.5-51.3-44.844-86.422-44.843,86.422Z" fill="#1d1569"/>
        <path id="パス_62" data-name="パス 62" d="M2252.035,5348.723V5089.111h94.48l174.5,158.729V5089.111h94v259.612h-94L2346.515,5190v158.728Z" fill="#1d1569"/>
      </g>
    </g>
  </g>
</svg>
