<?xml version="1.0" encoding="UTF-8"?>
<svg width="408px" height="248px" viewBox="0 0 408 248" version="1.1" xmlns="http://www.w3.org/2000/svg" xmlns:xlink="http://www.w3.org/1999/xlink">
    <title>logo_name_bw</title>
    <g id="logo" stroke="none" stroke-width="1" fill="none" fill-rule="evenodd">
        <g id="Artboard" transform="translate(-616.000000, -1035.000000)" fill="#333333">
            <g id="logo_name_bw" transform="translate(616.000000, 1035.000000)">
                <g id="logo_36x30_dark" transform="translate(102.000000, 0.000000)">
                    <path d="M85,164.333333 C128.81459,164.333333 164.333333,128.81459 164.333333,85 C164.333333,41.1854098 128.81459,5.66666667 85,5.66666667 C41.1854098,5.66666667 5.66666667,41.1854098 5.66666667,85 C5.66666667,128.81459 41.1854098,164.333333 85,164.333333 Z M85,170 C38.0557963,170 0,131.944204 0,85 C0,38.0557963 38.0557963,0 85,0 C131.944204,0 170,38.0557963 170,85 C170,131.944204 131.944204,170 85,170 Z" id="Oval-1-Copy-2" fill-rule="nonzero"></path>
                    <path d="M119,164.333333 C162.81459,164.333333 198.333333,128.81459 198.333333,85 C198.333333,41.1854098 162.81459,5.66666667 119,5.66666667 C75.1854098,5.66666667 39.6666667,41.1854098 39.6666667,85 C39.6666667,128.81459 75.1854098,164.333333 119,164.333333 Z M119,170 C72.0557963,170 34,131.944204 34,85 C34,38.0557963 72.0557963,0 119,0 C165.944204,0 204,38.0557963 204,85 C204,131.944204 165.944204,170 119,170 Z" id="Oval-1-Copy-2" fill-rule="nonzero"></path>
                    <rect id="Rectangle-1" x="34" y="85" width="5.66666667" height="68" rx="0.651162791"></rect>
                </g>
                <path d="M20.88,234.91 C8.335,234.91 0.86,227.5 0.86,212.16 C0.86,196.755 8.335,189.345 20.88,189.345 C33.425,189.345 40.9,196.755 40.9,212.16 C40.9,227.5 33.425,234.91 20.88,234.91 Z M20.88,191.165 C9.44,191.165 2.94,197.73 2.94,212.16 C2.94,226.525 9.44,233.09 20.88,233.09 C32.32,233.09 38.82,226.525 38.82,212.16 C38.82,197.73 32.32,191.165 20.88,191.165 Z M49.285,203.97 C49.805,203.97 50.26,204.425 50.26,204.945 L50.26,210.015 C51.95,205.855 55.525,203.58 60.985,203.58 C69.305,203.58 74.31,208.52 74.31,219.18 C74.31,229.84 69.305,234.845 60.985,234.845 C52.47,234.845 50.26,228.605 50.26,228.605 L50.26,246.09 C50.26,246.61 49.805,247.065 49.285,247.065 C48.765,247.065 48.31,246.61 48.31,246.09 L48.31,204.945 C48.31,204.425 48.765,203.97 49.285,203.97 Z M50.13,219.18 C50.13,229.19 54.745,233.155 60.985,233.155 C68.33,233.155 72.23,228.93 72.23,219.18 C72.23,209.56 68.135,205.27 60.79,205.27 C54.225,205.27 50.13,209.495 50.13,219.18 Z M79.445,219.18 C79.445,209.105 84.385,203.58 92.705,203.58 C103.495,203.58 104.925,211.64 104.925,215.995 C104.925,216.71 104.925,217.62 104.795,218.4 C104.665,219.115 104.21,219.44 103.365,219.44 L81.46,219.44 C81.46,228.8 85.815,233.155 93.42,233.155 C98.295,233.155 100.7,231.465 102.585,229.905 C102.78,229.775 102.91,229.71 103.105,229.71 C103.56,229.71 103.95,230.1 103.95,230.555 C103.95,230.88 103.755,231.075 103.56,231.27 C102.52,232.245 99.4,234.845 93.42,234.845 C84.775,234.845 79.445,230.165 79.445,219.18 Z M103.04,215.995 C103.04,210.795 101.025,205.27 92.705,205.27 C85.36,205.27 81.72,210.08 81.46,217.815 L102.975,217.815 C102.975,217.815 103.04,216.515 103.04,215.995 Z M112.66,234.52 C112.14,234.52 111.685,234.065 111.685,233.545 L111.685,204.945 C111.685,204.425 112.14,203.97 112.66,203.97 C113.18,203.97 113.635,204.425 113.635,204.945 L113.635,209.82 C114.61,207.22 117.73,203.58 123.84,203.58 C133.2,203.58 135.475,209.105 135.475,215.085 L135.475,233.545 C135.475,234.065 135.02,234.52 134.5,234.52 C133.98,234.52 133.525,234.065 133.525,233.545 L133.525,215.085 C133.525,209.82 131.705,205.27 123.775,205.27 C116.69,205.27 113.635,210.665 113.635,215.735 L113.635,233.545 C113.635,234.065 113.18,234.52 112.66,234.52 Z M147.305,192.075 L147.305,212.875 L159.265,212.875 C165.7,212.875 169.73,209.3 169.73,202.475 C169.73,195.52 165.635,192.075 159.265,192.075 L147.305,192.075 Z M147.305,214.695 L147.305,233.48 C147.305,234.065 146.85,234.52 146.265,234.52 C145.68,234.52 145.225,234.065 145.225,233.48 L145.225,191.295 C145.225,190.71 145.68,190.255 146.265,190.255 L159.98,190.255 C166.61,190.255 171.81,194.22 171.81,202.475 C171.81,210.6 166.74,214.695 159.98,214.695 L147.305,214.695 Z M180.13,203.97 C180.65,203.97 181.105,204.425 181.105,204.945 L181.105,211.315 C182.47,206.96 186.11,203.645 192.22,203.645 C192.675,203.645 193.065,204.035 193.065,204.49 C193.065,204.945 192.675,205.335 192.22,205.335 C184.745,205.335 181.105,211.12 181.105,218.205 L181.105,233.545 C181.105,234.065 180.65,234.52 180.13,234.52 C179.61,234.52 179.155,234.065 179.155,233.545 L179.155,204.945 C179.155,204.425 179.61,203.97 180.13,203.97 Z M209.315,203.58 C217.635,203.58 222.64,208.52 222.64,219.18 C222.64,229.84 217.635,234.845 209.315,234.845 C200.995,234.845 195.99,229.84 195.99,219.18 C195.99,208.52 200.995,203.58 209.315,203.58 Z M209.315,233.155 C216.595,233.155 220.56,228.865 220.56,219.18 C220.56,209.625 216.595,205.27 209.315,205.27 C202.035,205.27 198.07,209.625 198.07,219.18 C198.07,228.865 202.035,233.155 209.315,233.155 Z M227.71,219.18 C227.71,208.52 232.715,203.58 241.035,203.58 C247.47,203.58 250.005,207.09 250.655,207.935 C250.785,208.13 250.85,208.325 250.85,208.52 C250.85,208.975 250.46,209.365 250.005,209.365 C249.68,209.365 249.485,209.235 249.29,208.975 C248.185,207.675 246.235,205.27 241.035,205.27 C233.69,205.27 229.79,209.56 229.79,219.18 C229.79,228.93 233.69,233.155 241.035,233.155 C245.52,233.155 247.99,231.27 249.68,229.97 C249.875,229.84 250.005,229.775 250.2,229.775 C250.655,229.775 251.045,230.165 251.045,230.62 C251.045,230.815 250.98,231.075 250.655,231.335 C249.355,232.375 246.3,234.845 241.035,234.845 C232.715,234.845 227.71,229.84 227.71,219.18 Z M256.375,219.18 C256.375,209.105 261.315,203.58 269.635,203.58 C280.425,203.58 281.855,211.64 281.855,215.995 C281.855,216.71 281.855,217.62 281.725,218.4 C281.595,219.115 281.14,219.44 280.295,219.44 L258.39,219.44 C258.39,228.8 262.745,233.155 270.35,233.155 C275.225,233.155 277.63,231.465 279.515,229.905 C279.71,229.775 279.84,229.71 280.035,229.71 C280.49,229.71 280.88,230.1 280.88,230.555 C280.88,230.88 280.685,231.075 280.49,231.27 C279.45,232.245 276.33,234.845 270.35,234.845 C261.705,234.845 256.375,230.165 256.375,219.18 Z M279.97,215.995 C279.97,210.795 277.955,205.27 269.635,205.27 C262.29,205.27 258.65,210.08 258.39,217.815 L279.905,217.815 C279.905,217.815 279.97,216.515 279.97,215.995 Z M296.805,205.27 C292.97,205.27 289.2,206.635 289.2,210.86 C289.2,219.505 307.79,216.515 307.79,226.785 C307.79,232.31 303.11,234.845 297.065,234.845 C291.605,234.845 287.575,232.505 286.015,230.36 C285.82,230.1 285.755,229.97 285.755,229.71 C285.755,229.19 286.21,228.865 286.6,228.865 C286.795,228.865 286.99,228.93 287.185,229.125 C289.395,231.595 292.19,233.155 297.065,233.155 C301.81,233.155 305.84,231.465 305.84,226.785 C305.84,218.4 287.25,221.13 287.25,210.86 C287.25,205.855 291.475,203.58 296.805,203.58 C301.225,203.58 304.345,205.075 306.49,207.48 C306.685,207.74 306.75,207.87 306.75,208.13 C306.75,208.585 306.36,208.975 305.905,208.975 C305.775,208.975 305.58,208.975 305.32,208.715 C303.045,206.44 300.575,205.27 296.805,205.27 Z M322.74,205.27 C318.905,205.27 315.135,206.635 315.135,210.86 C315.135,219.505 333.725,216.515 333.725,226.785 C333.725,232.31 329.045,234.845 323,234.845 C317.54,234.845 313.51,232.505 311.95,230.36 C311.755,230.1 311.69,229.97 311.69,229.71 C311.69,229.19 312.145,228.865 312.535,228.865 C312.73,228.865 312.925,228.93 313.12,229.125 C315.33,231.595 318.125,233.155 323,233.155 C327.745,233.155 331.775,231.465 331.775,226.785 C331.775,218.4 313.185,221.13 313.185,210.86 C313.185,205.855 317.41,203.58 322.74,203.58 C327.16,203.58 330.28,205.075 332.425,207.48 C332.62,207.74 332.685,207.87 332.685,208.13 C332.685,208.585 332.295,208.975 331.84,208.975 C331.71,208.975 331.515,208.975 331.255,208.715 C328.98,206.44 326.51,205.27 322.74,205.27 Z M341.785,203.97 C342.305,203.97 342.76,204.425 342.76,204.945 L342.76,233.545 C342.76,234.065 342.305,234.52 341.785,234.52 C341.265,234.52 340.81,234.065 340.81,233.545 L340.81,204.945 C340.81,204.425 341.265,203.97 341.785,203.97 Z M341.785,195.52 C341.005,195.52 340.615,195.13 340.615,194.155 C340.615,193.18 341.005,192.79 341.785,192.79 C342.565,192.79 342.955,193.18 342.955,194.155 C342.955,195.13 342.565,195.52 341.785,195.52 Z M352.835,234.52 C352.315,234.52 351.86,234.065 351.86,233.545 L351.86,204.945 C351.86,204.425 352.315,203.97 352.835,203.97 C353.355,203.97 353.81,204.425 353.81,204.945 L353.81,209.82 C354.785,207.22 357.905,203.58 364.015,203.58 C373.375,203.58 375.65,209.105 375.65,215.085 L375.65,233.545 C375.65,234.065 375.195,234.52 374.675,234.52 C374.155,234.52 373.7,234.065 373.7,233.545 L373.7,215.085 C373.7,209.82 371.88,205.27 363.95,205.27 C356.865,205.27 353.81,210.665 353.81,215.735 L353.81,233.545 C353.81,234.065 353.355,234.52 352.835,234.52 Z M406.005,225.615 L406.005,216.19 C406.005,208.585 401.52,205.27 395.41,205.27 C388.065,205.27 384.165,209.495 384.165,219.245 C384.165,228.865 388.065,233.22 395.41,233.22 C403.47,233.22 406.005,225.615 406.005,225.615 Z M406.005,228.735 C406.005,228.735 403.405,234.91 395.41,234.91 C387.09,234.91 382.085,229.905 382.085,219.245 C382.085,208.585 387.09,203.58 395.41,203.58 C402.69,203.58 407.955,207.74 407.955,216.19 L407.955,234.78 C407.955,243.49 402.3,247.065 395.085,247.065 C390.015,247.065 386.44,245.31 384.425,242.84 C384.295,242.645 384.23,242.45 384.23,242.255 C384.23,241.865 384.555,241.41 385.075,241.41 C385.335,241.41 385.595,241.54 385.79,241.8 C387.48,243.815 390.145,245.44 395.085,245.44 C401.65,245.44 406.005,242.125 406.005,234.78 L406.005,228.735 Z" id="OpenProcessing-Copy"></path>
            </g>
        </g>
    </g>
</svg>